<?xml version="1.0" encoding="UTF-8" standalone="no"?>
<!-- Created with Inkscape (http://www.inkscape.org/) -->

<svg
   xmlns:dc="http://purl.org/dc/elements/1.1/"
   xmlns:cc="http://creativecommons.org/ns#"
   xmlns:rdf="http://www.w3.org/1999/02/22-rdf-syntax-ns#"
   xmlns:svg="http://www.w3.org/2000/svg"
   xmlns="http://www.w3.org/2000/svg"
   xmlns:sodipodi="http://sodipodi.sourceforge.net/DTD/sodipodi-0.dtd"
   xmlns:inkscape="http://www.inkscape.org/namespaces/inkscape"
   width="744.09448819"
   height="1052.3622047"
   id="svg2"
   version="1.1"
   inkscape:version="0.48.2 r9819"
   sodipodi:docname="icon.svg">
  <defs
     id="defs4">
    <clipPath
       id="clipPath3845"
       clipPathUnits="userSpaceOnUse">
      <path
         id="path3847"
         d="M 0,1173.6 0,0 l 1173.6,0 0,1173.6 -1173.6,0 z" />
    </clipPath>
    <clipPath
       id="clipPath3833"
       clipPathUnits="userSpaceOnUse">
      <path
         id="path3835"
         d="m 589.273,85.8516 c -276.222,0 -500.1441,223.9254 -500.1441,500.1444 0,276.223 223.9221,500.144 500.1441,500.144 276.219,0 500.147,-223.921 500.147,-500.144 0,-276.219 -223.928,-500.1444 -500.147,-500.1444" />
    </clipPath>
    <clipPath
       id="clipPath3821"
       clipPathUnits="userSpaceOnUse">
      <path
         id="path3823"
         d="M 0,1173.6 0,0 l 1173.6,0 0,1173.6 -1173.6,0 z" />
    </clipPath>
    <clipPath
       id="clipPath3809"
       clipPathUnits="userSpaceOnUse">
      <path
         id="path3811"
         d="M 1173.6,0 0,0 l 0,1173.6 1173.6,0 0,-1173.6 M 586.539,1131.08 c -300.453,0 -544.0195,-243.564 -544.0195,-544.01 0,-300.457 243.5665,-544.0309 544.0195,-544.0309 300.449,0 544.001,243.5739 544.001,544.0309 0,300.446 -243.552,544.01 -544.001,544.01" />
    </clipPath>
    <clipPath
       id="clipPath4166"
       clipPathUnits="userSpaceOnUse">
      <path
         id="path4168"
         d="m 0,28.347 28.346,0 L 28.346,0 0,0 0,28.347 z" />
    </clipPath>
  </defs>
  <sodipodi:namedview
     id="base"
     pagecolor="#ffffff"
     bordercolor="#666666"
     borderopacity="1.0"
     inkscape:pageopacity="0.0"
     inkscape:pageshadow="2"
     inkscape:zoom="7.9195959"
     inkscape:cx="647.80783"
     inkscape:cy="324.91227"
     inkscape:document-units="px"
     inkscape:current-layer="g4116"
     showgrid="false"
     showguides="true"
     inkscape:guide-bbox="true"
     inkscape:window-width="1360"
     inkscape:window-height="718"
     inkscape:window-x="-2"
     inkscape:window-y="27"
     inkscape:window-maximized="1" />
  <metadata
     id="metadata7">
    <rdf:RDF>
      <cc:Work
         rdf:about="">
        <dc:format>image/svg+xml</dc:format>
        <dc:type
           rdf:resource="http://purl.org/dc/dcmitype/StillImage" />
        <dc:title></dc:title>
      </cc:Work>
    </rdf:RDF>
  </metadata>
  <g
     inkscape:label="Layer 1"
     inkscape:groupmode="layer"
     id="layer1">
    <g
       id="g4116"
       transform="matrix(0.17503319,0,0,0.17503319,543.88959,609.93152)"
       inkscape:export-filename="/home/altin/icon2.png"
       inkscape:export-xdpi="94.519997"
       inkscape:export-ydpi="94.519997">
      <g
         id="g3019"
         inkscape:export-filename="/home/altin/Prishtina Buses/altin_ukshini/icon3.png"
         inkscape:export-xdpi="90"
         inkscape:export-ydpi="90"
         transform="matrix(1.2104721,0,0,1.2104721,-76.466148,-113.24929)">
        <rect
           y="538.07257"
           x="363.30768"
           height="175.30038"
           width="164.47935"
           id="rect3017"
           style="opacity:0;fill:#ffffff" />
        <g
           inkscape:export-ydpi="94.519997"
           inkscape:export-xdpi="94.519997"
           inkscape:export-filename="/home/altin/icon.png"
           transform="translate(-64.926061,-72.140072)"
           id="g4264">
          <g
             transform="matrix(0.92579749,0,0,0.92579749,136.66895,-40.09704)"
             id="g3778">
            <g
               transform="translate(0.27277902,0)"
               id="g4112">
              <path
                 inkscape:connector-curvature="0"
                 id="path3770-3"
                 d="m 359.09632,835.89087 45.40527,54.43646 42.65343,-55.14342 z"
                 style="fill:#ffffff;fill-opacity:1;stroke:none" />
              <path
                 inkscape:connector-curvature="0"
                 id="path3770-3-3"
                 d="m 362.31511,830.45515 42.26077,50.66651 39.69951,-51.32451 z"
                 style="fill:#066e9f;fill-opacity:1;stroke:none" />
            </g>
          </g>
          <path
             inkscape:connector-curvature="0"
             d="m 577.9675,682.32844 c 0,37.55712 -30.444,68.00386 -68.00013,68.00386 -37.55662,0 -68.00243,-30.44674 -68.00243,-68.00386 0,-37.55575 30.44581,-68.00125 68.00243,-68.00125 37.55613,0 68.00013,30.4455 68.00013,68.00125"
             style="fill:#ffffff;fill-opacity:1;fill-rule:nonzero;stroke:none"
             id="path3825" />
          <path
             inkscape:connector-curvature="0"
             d="m 572.8275,682.46269 c 0,34.52737 -27.991,62.51805 -62.51838,62.51805 -34.52774,0 -62.51801,-27.99068 -62.51801,-62.51805 0,-34.52788 27.99027,-62.518 62.51801,-62.518 34.52738,0 62.51838,27.99012 62.51838,62.518"
             style="fill:#066e9f;fill-opacity:1;fill-rule:nonzero;stroke:none"
             id="path3827" />
          <path
             inkscape:connector-curvature="0"
             d="m 485.07137,707.35031 37.27488,0 0,0.80425 -37.04338,0"
             style="fill:#2e6fa2;fill-opacity:1;fill-rule:nonzero;stroke:none"
             id="path3881" />
          <path
             inkscape:connector-curvature="0"
             d="m 545.90588,707.75081 11.74799,0 0,0.80175 -11.67575,0"
             style="fill:#2e6fa2;fill-opacity:1;fill-rule:nonzero;stroke:none"
             id="path3883" />
          <path
             inkscape:connector-curvature="0"
             d="m 452.63237,706.71656 10.1495,0 0,0.80475 -9.82187,0"
             style="fill:#2e6fa2;fill-opacity:1;fill-rule:nonzero;stroke:none"
             id="path3885" />
          <path
             inkscape:connector-curvature="0"
             d="m 565.7875,686.65456 -7.406,0 -0.127,0.4575 c -0.0103,0.0376 -0.544,1.96201 -0.5445,4.75838 0,1.39787 0.13388,3.01412 0.53812,4.72062 l 0.11425,0.481 7.79388,0 0,-1.25 -7.29975,0 0,0.625 0.608,-0.1445 c -0.378,-1.59325 -0.5045,-3.11425 -0.5045,-4.43212 0,-1.31838 0.1265,-2.43363 0.253,-3.21488 0.063,-0.39012 0.1255,-0.69725 0.17187,-0.90437 l 0.0551,-0.23338 0.0186,-0.0708 -0.60212,-0.1675 0,0.625 6.931,0 0,-1.25"
             style="fill:#2e6fa2;fill-opacity:1;fill-rule:nonzero;stroke:none"
             id="path3887" />
          <g
             id="g4252"
             transform="matrix(0.55882256,0,0,0.55882256,68.522086,268.59279)">
            <g
               transform="matrix(7.1415027,0,0,-7.1415027,745.56445,666.93267)"
               id="g4174">
              <path
                 id="path4176"
                 style="fill:#ffffff;fill-opacity:1;fill-rule:nonzero;stroke:none"
                 d="m 0,0 11.935,0.125 c 0,0 2.447,-0.062 2.984,-2.43 0.538,-2.368 0.417,-14.392 0.417,-14.392 0,0 -0.119,-1.183 -1.432,-1.183 l 0,-2.679 -3.046,0.005 0,2.664 -9.396,0.041 0,-2.71 -2.85,0 0.015,2.679 c 0,0 -1.134,0 -1.313,0.747 -0.179,0.748 0.138,14.434 0.138,14.434 0,0 0.459,2.325 2.548,2.699"
                 inkscape:connector-curvature="0" />
            </g>
            <g
               style="fill:#066e9f;fill-opacity:1"
               transform="matrix(7.1415027,0,0,-7.1415027,823.0019,685.32061)"
               id="g4178">
              <path
                 id="path4180"
                 style="fill:#066e9f;fill-opacity:1;fill-rule:nonzero;stroke:none"
                 d="m 0,0 -9.098,0 c -1.052,0 -1.052,1.096 0,1.096 L 0,1.096 C 1.052,1.096 1.052,0 0,0"
                 inkscape:connector-curvature="0" />
            </g>
            <g
               style="fill:#066e9f;fill-opacity:1"
               transform="matrix(7.1415027,0,0,-7.1415027,762.8983,768.67123)"
               id="g4182">
              <path
                 id="path4184"
                 style="fill:#066e9f;fill-opacity:1;fill-rule:nonzero;stroke:none"
                 d="m 0,0 c 0,-0.774 -0.654,-1.402 -1.462,-1.402 -0.808,0 -1.462,0.628 -1.462,1.402 0,0.774 0.654,1.401 1.462,1.401 C -0.654,1.401 0,0.774 0,0"
                 inkscape:connector-curvature="0" />
            </g>
            <g
               style="fill:#066e9f;fill-opacity:1"
               transform="matrix(7.1415027,0,0,-7.1415027,836.63289,768.67123)"
               id="g4186">
              <path
                 id="path4188"
                 style="fill:#066e9f;fill-opacity:1;fill-rule:nonzero;stroke:none"
                 d="m 0,0 c 0,-0.774 -0.655,-1.402 -1.463,-1.402 -0.807,0 -1.461,0.628 -1.461,1.402 0,0.774 0.654,1.401 1.461,1.401 C -0.655,1.401 0,0.774 0,0"
                 inkscape:connector-curvature="0" />
            </g>
            <g
               style="fill:#066e9f;fill-opacity:1"
               transform="matrix(7.1415027,0,0,-7.1415027,841.7512,740.12665)"
               id="g4190">
              <path
                 id="path4192"
                 style="fill:#066e9f;fill-opacity:1;fill-rule:nonzero;stroke:none"
                 d="m 0,0 c 0,-0.307 -0.513,-0.555 -1.146,-0.555 l -12.109,0 c -0.633,0 -1.146,0.248 -1.146,0.555 l 0,5.573 c 0,0.306 0.513,0.555 1.146,0.555 l 12.109,0 C -0.513,6.128 0,5.879 0,5.573 L 0,0 z"
                 inkscape:connector-curvature="0" />
            </g>
          </g>
        </g>
      </g>
    </g>
  </g>
</svg>
